# xmcd
#
# Track frame offsets:
#	150
#	16177
#	41454
#	71648
#	86923
#	110542
#
# Disc length: 2108 seconds
#
# Revision: 0
# Processed by: cddbd v1.5.2PL0 Copyright (c) Steve Scherf et al.
# Submitted via: audiograbber 1.83.01
#
DISCID=47083a06
DTITLE=Drive-By Truckers - Sometimes Late At Night (Bonus EP)
DYEAR=2011
DGENRE=Americana
TTITLE0=When I Ran Off And Left Her
TTITLE1=Used To Be A Cop (live)
TTITLE2=Everybody Needs Love (live)
TTITLE3=Get Downtown (live)
TTITLE4=Mercy Buckets (live)
TTITLE5=Buttholeville/State Trooper (live)
EXTD=Bonus EP with Go-Go Boots
EXTT0=
EXTT1=
EXTT2=
EXTT3=
EXTT4=
EXTT5=
PLAYORDER=
